<svg width="97" height="49" viewBox="0 0 97 49" fill="none" xmlns="http://www.w3.org/2000/svg">
<path d="M22.5898 2.67383C22.7812 2.91992 23 3.11133 23.2461 3.24805C23.5195 3.38477 23.7656 3.5625 23.9844 3.78125C24.1484 3.97266 24.2578 4.0957 24.3125 4.15039C24.3125 4.45117 24.2441 4.73828 24.1074 5.01172C23.998 5.28516 23.9297 5.58594 23.9023 5.91406C23.8477 6.625 23.7383 7.18555 23.5742 7.5957C23.4102 7.97852 23.3418 8.33398 23.3691 8.66211C23.3691 8.9082 23.4375 9.16797 23.5742 9.44141C23.7109 9.71484 23.6699 9.96094 23.4512 10.1797C23.3145 10.3164 23.1641 10.4121 23 10.4668C22.8633 10.4941 22.6855 10.5352 22.4668 10.5898C22.248 10.6445 22.0293 10.7129 21.8105 10.7949C21.6191 10.8496 21.4141 10.877 21.1953 10.877C21.0586 10.8496 20.9082 10.8223 20.7441 10.7949C20.6074 10.7676 20.457 10.7402 20.293 10.7129C20.2109 10.6309 20.1426 10.5625 20.0879 10.5078C20.0605 10.4258 20.0195 10.3164 19.9648 10.1797C20.0195 10.043 20.0332 9.91992 20.0059 9.81055C20.0059 9.67383 20.0195 9.53711 20.0469 9.40039C20.0742 9.01758 20.1699 8.67578 20.334 8.375C20.5254 8.04688 20.6621 7.71875 20.7441 7.39062C20.7441 7.14453 20.7852 6.93945 20.8672 6.77539C20.8672 6.55664 20.9082 6.36523 20.9902 6.20117C21.0723 6.03711 21.0996 5.87305 21.0723 5.70898C21.1816 5.57227 21.25 5.42188 21.2773 5.25781C21.3047 5.06641 21.3457 4.86133 21.4004 4.64258C21.1543 4.5332 20.8809 4.47852 20.5801 4.47852C20.2793 4.45117 20.0195 4.50586 19.8008 4.64258C18.7617 4.66992 17.9141 4.95703 17.2578 5.50391C16.6016 6.02344 16.0684 6.63867 15.6582 7.34961C15.4395 7.5957 15.2207 7.88281 15.002 8.21094C14.8105 8.51172 14.6055 8.8125 14.3867 9.11328C14.1133 9.52344 13.8945 9.83789 13.7305 10.0566C13.5664 10.2754 13.416 10.4941 13.2793 10.7129C13.1699 10.877 13.0742 11.0547 12.9922 11.2461C12.9102 11.4102 12.8145 11.5879 12.7051 11.7793C12.623 11.9707 12.5273 12.1621 12.418 12.3535C12.3086 12.5176 12.2129 12.709 12.1309 12.9277C12.1035 13.0098 12.0762 13.0918 12.0488 13.1738C12.0215 13.2559 11.9941 13.3242 11.9668 13.3789C11.9395 13.4609 11.9395 13.5566 11.9668 13.666C11.9941 13.748 12.0215 13.8164 12.0488 13.8711C12.0762 14.0078 12.0898 14.1309 12.0898 14.2402C12.0898 14.3496 12.1172 14.4727 12.1719 14.6094C12.3359 14.8828 12.4453 15.1016 12.5 15.2656C12.5547 15.4023 12.623 15.5391 12.7051 15.6758C12.7871 15.8125 12.8691 15.9355 12.9512 16.0449C13.0605 16.127 13.1562 16.2227 13.2383 16.332C13.5391 16.3867 13.8125 16.4414 14.0586 16.4961C14.332 16.5508 14.5918 16.5918 14.8379 16.6191C15.1387 16.6465 15.4258 16.6191 15.6992 16.5371C16 16.4551 16.2871 16.4414 16.5605 16.4961C16.8066 16.332 17.0391 16.3457 17.2578 16.5371C17.4766 16.7285 17.6133 16.9062 17.668 17.0703C17.6953 17.2617 17.6816 17.4805 17.627 17.7266C17.5996 17.9727 17.5449 18.1641 17.4629 18.3008C17.3535 18.4922 17.2031 18.6562 17.0117 18.793C16.8477 18.9023 16.6973 18.998 16.5605 19.0801C16.2598 19.1074 15.9863 19.1621 15.7402 19.2441C15.4941 19.2988 15.2344 19.3125 14.9609 19.2852C14.3047 19.4492 13.6074 19.6133 12.8691 19.7773C12.1582 19.9414 11.4473 20.1328 10.7363 20.3516C10.4629 20.4062 10.2988 20.4609 10.2441 20.5156C10.1895 20.5703 10.0938 20.5977 9.95703 20.5977C9.57422 20.7344 9.21875 20.8848 8.89062 21.0488C8.5625 21.2129 8.24805 21.4043 7.94727 21.623C7.70117 21.8418 7.50977 21.9922 7.37305 22.0742C7.23633 22.1562 7.14062 22.293 7.08594 22.4844C6.73047 22.8945 6.33398 23.2773 5.89648 23.6328L4.78906 25.0273C4.65234 25.1641 4.57031 25.2598 4.54297 25.3145C4.54297 25.3691 4.5293 25.4648 4.50195 25.6016C4.50195 25.875 4.46094 26.1621 4.37891 26.4629C4.32422 26.7637 4.2832 27.0371 4.25586 27.2832C4.22852 27.6113 4.22852 27.9121 4.25586 28.1855C4.2832 28.459 4.36523 28.7051 4.50195 28.9238C4.55664 28.9785 4.61133 29.0605 4.66602 29.1699C4.74805 29.252 4.81641 29.3613 4.87109 29.498C4.98047 29.6895 5.07617 29.8535 5.1582 29.9902C5.24023 30.0996 5.39062 30.2227 5.60938 30.3594C5.69141 30.4141 5.78711 30.4688 5.89648 30.5234C6.00586 30.5781 6.08789 30.6055 6.14258 30.6055C6.19727 30.6055 6.26562 30.5918 6.34766 30.5645C6.45703 30.5098 6.55273 30.4688 6.63477 30.4414C6.7168 30.4141 6.79883 30.4004 6.88086 30.4004C6.96289 30.4004 7.03125 30.373 7.08594 30.3184C7.55078 30.1816 7.94727 29.9902 8.27539 29.7441C8.63086 29.498 9.02734 29.2793 9.46484 29.0879C9.57422 29.0332 9.68359 28.9785 9.79297 28.9238C9.92969 28.8418 10.0664 28.7734 10.2031 28.7188C10.5312 28.4727 10.8594 28.2266 11.1875 27.9805C11.543 27.7344 11.9395 27.502 12.377 27.2832C12.6777 27.1465 12.9648 26.9824 13.2383 26.791C13.5117 26.5996 13.7578 26.4082 13.9766 26.2168C14.1133 25.9707 14.25 25.7656 14.3867 25.6016C14.5508 25.4375 14.6738 25.2324 14.7559 24.9863C14.8652 24.959 14.9336 24.9043 14.9609 24.8223C15.0156 24.7129 15.084 24.6172 15.166 24.5352C15.1113 24.4258 15.0703 24.3164 15.043 24.207C15.0156 24.0703 14.9609 23.9746 14.8789 23.9199C14.6328 23.9473 14.3867 23.9199 14.1406 23.8379C13.8945 23.7559 13.6211 23.7422 13.3203 23.7969C13.2656 23.7969 13.1973 23.8105 13.1152 23.8379C13.0332 23.8652 12.9512 23.8926 12.8691 23.9199C12.4316 24.002 12.0078 24.1387 11.5977 24.3301C11.2148 24.5215 10.9004 24.7539 10.6543 25.0273C10.627 25.1641 10.5723 25.2598 10.4902 25.3145C10.4355 25.3691 10.3809 25.4375 10.3262 25.5195C10.1895 25.793 10.0664 26.0801 9.95703 26.3809C9.875 26.6543 9.73828 26.9141 9.54688 27.1602C9.46484 27.1602 9.38281 27.1191 9.30078 27.0371C9.21875 26.9551 9.16406 26.873 9.13672 26.791C9.13672 26.7363 9.15039 26.6543 9.17773 26.5449C9.20508 26.4082 9.21875 26.2988 9.21875 26.2168C9.24609 26.1348 9.24609 26.0664 9.21875 26.0117C9.19141 25.9297 9.19141 25.8203 9.21875 25.6836C9.24609 25.5195 9.27344 25.3281 9.30078 25.1094C9.32812 24.8906 9.36914 24.7129 9.42383 24.5762C9.5332 24.1934 9.64258 23.9336 9.75195 23.7969C9.86133 23.6328 9.99805 23.5234 10.1621 23.4688C10.2168 23.3867 10.2852 23.3184 10.3672 23.2637C10.4766 23.1816 10.5996 23.0996 10.7363 23.0176C10.9551 22.8809 11.0918 22.7852 11.1465 22.7305C11.2012 22.6484 11.2695 22.5801 11.3516 22.5254C11.4883 22.4707 11.6387 22.416 11.8027 22.3613C11.9941 22.2793 12.1582 22.2246 12.2949 22.1973C12.4863 22.1699 12.6777 22.1289 12.8691 22.0742C13.0879 21.9922 13.3203 21.9512 13.5664 21.9512C13.8398 22.0059 14.0312 22.0469 14.1406 22.0742C14.25 22.0742 14.3457 22.0605 14.4277 22.0332C14.5371 22.0059 14.6465 22.0059 14.7559 22.0332C14.8379 22.0332 14.9062 22.0469 14.9609 22.0742C15.043 22.0742 15.125 22.0742 15.207 22.0742C15.3711 22.0469 15.5215 22.0195 15.6582 21.9922C15.8223 21.9648 15.959 22.0195 16.0684 22.1562C16.3145 22.2109 16.5195 22.3203 16.6836 22.4844C16.875 22.6211 17.0391 22.7715 17.1758 22.9355C17.2305 23.0176 17.2852 23.0859 17.3398 23.1406C17.3945 23.1953 17.4492 23.2773 17.5039 23.3867C17.6406 23.7148 17.668 24.0703 17.5859 24.4531C17.5312 24.8359 17.4082 25.1641 17.2168 25.4375C17.1895 25.5469 17.1484 25.6426 17.0938 25.7246C17.0391 25.7793 16.9844 25.8477 16.9297 25.9297C16.3281 26.5312 15.9043 27.1055 15.6582 27.6523C15.3027 27.8984 14.9883 28.1719 14.7148 28.4727C14.4688 28.7734 14.168 29.0332 13.8125 29.252C13.6211 29.4707 13.3887 29.6484 13.1152 29.7852C12.8691 29.8945 12.6367 30.0312 12.418 30.1953C12.1719 30.3867 11.8984 30.5781 11.5977 30.7695C11.3242 30.9609 11.0371 31.125 10.7363 31.2617C10.4902 31.4258 10.2305 31.5488 9.95703 31.6309C9.62891 31.8496 9.27344 32.0273 8.89062 32.1641C8.53516 32.3008 8.19336 32.4785 7.86523 32.6973C7.40039 32.834 6.92188 33.0254 6.42969 33.2715C5.96484 33.5176 5.51367 33.709 5.07617 33.8457C4.91211 33.873 4.69336 33.8457 4.41992 33.7637C4.20117 33.709 3.94141 33.5723 3.64062 33.3535C3.33984 33.1621 3.13477 32.957 3.02539 32.7383C2.83398 32.6836 2.68359 32.5469 2.57422 32.3281C2.49219 32.1094 2.38281 31.918 2.24609 31.7539C2.16406 31.6172 2.08203 31.4805 2 31.3438C1.89062 31.1797 1.79492 31.002 1.71289 30.8105C1.4668 30.4824 1.28906 30.1816 1.17969 29.9082C1.04297 29.498 0.960938 29.2383 0.933594 29.1289C0.878906 29.0195 0.824219 28.8965 0.769531 28.7598C0.714844 28.623 0.660156 28.5 0.605469 28.3906C0.523438 28.2812 0.441406 28.1719 0.359375 28.0625C0.25 27.5156 0.304688 26.9688 0.523438 26.4219C0.714844 25.875 0.90625 25.4102 1.09766 25.0273C1.20703 24.8906 1.28906 24.7676 1.34375 24.6582C1.39844 24.5215 1.45312 24.3848 1.50781 24.248C1.64453 24.002 1.78125 23.7832 1.91797 23.5918C2.05469 23.373 2.19141 23.1543 2.32812 22.9355C2.46484 22.7168 2.57422 22.4844 2.65625 22.2383C2.76562 21.9922 2.90234 21.7598 3.06641 21.541C3.14844 21.2402 3.28516 21.0215 3.47656 20.8848C3.66797 20.7207 3.85938 20.5293 4.05078 20.3105C4.1875 20.2559 4.29688 20.1875 4.37891 20.1055C4.48828 20.0234 4.59766 19.9414 4.70703 19.8594C5.33594 19.5859 5.89648 19.3125 6.38867 19.0391C6.9082 18.7656 7.44141 18.5195 7.98828 18.3008C8.80859 18.1367 9.64258 17.877 10.4902 17.5215C10.2715 17.2754 10.0938 16.9609 9.95703 16.5781C9.84766 16.168 9.72461 15.7441 9.58789 15.3066C9.56055 15.1973 9.51953 15.1016 9.46484 15.0195C9.41016 14.9102 9.36914 14.8008 9.3418 14.6914C9.28711 14.418 9.24609 14.2539 9.21875 14.1992C9.21875 14.1445 9.20508 14.0898 9.17773 14.0352C9.15039 13.8438 9.13672 13.6523 9.13672 13.4609C9.13672 13.2422 9.13672 13.0234 9.13672 12.8047C9.13672 12.668 9.13672 12.5176 9.13672 12.3535C9.13672 12.1895 9.16406 12.0391 9.21875 11.9023C9.32812 11.6289 9.36914 11.4512 9.3418 11.3691C9.3418 11.2871 9.35547 11.2051 9.38281 11.123C9.41016 11.0137 9.4375 10.9316 9.46484 10.877C9.51953 10.8223 9.54688 10.7266 9.54688 10.5898C9.68359 10.3984 9.82031 10.1934 9.95703 9.97461C10.1211 9.75586 10.2715 9.53711 10.4082 9.31836C10.5996 9.01758 10.7773 8.75781 10.9414 8.53906C11.1055 8.32031 11.2422 8.08789 11.3516 7.8418C11.5703 7.70508 11.748 7.52734 11.8848 7.30859C12.0488 7.08984 12.2266 6.89844 12.418 6.73438C12.7734 6.32422 13.1152 5.92773 13.4434 5.54492C13.7988 5.13477 14.1953 4.7793 14.6328 4.47852C14.9336 4.3418 15.207 4.17773 15.4531 3.98633C15.6992 3.79492 15.9453 3.61719 16.1914 3.45312C16.4375 3.23437 16.6973 3.07031 16.9707 2.96094C17.2715 2.82422 17.5586 2.66016 17.832 2.46875C17.9688 2.44141 18.0781 2.40039 18.1602 2.3457C18.2422 2.29102 18.3379 2.23633 18.4473 2.18164C18.6387 2.07227 18.8984 1.97656 19.2266 1.89453C19.418 1.83984 19.582 1.78516 19.7188 1.73047C19.8828 1.67578 20.0742 1.66211 20.293 1.68945C20.5664 1.7168 20.7988 1.75781 20.9902 1.8125C21.1816 1.83984 21.3457 1.92187 21.4824 2.05859C21.7012 2.08594 21.8789 2.16797 22.0156 2.30469C22.1523 2.41406 22.2891 2.53711 22.4258 2.67383H22.5898ZM33.2949 22.3203C33.5957 22.4023 33.7871 22.498 33.8691 22.6074C33.9785 22.7168 34.0332 22.8262 34.0332 22.9355C33.8145 23.2363 33.6777 23.4414 33.623 23.5508C33.5957 23.6328 33.5137 23.7012 33.377 23.7559C33.0215 24.3027 32.6113 24.7949 32.1465 25.2324C31.709 25.6426 31.2988 26.1074 30.916 26.627C30.7793 26.7637 30.6562 26.9004 30.5469 27.0371C30.4375 27.1738 30.3145 27.3105 30.1777 27.4473C29.877 27.666 29.6035 27.9121 29.3574 28.1855C29.1113 28.4316 28.8516 28.6641 28.5781 28.8828C28.4414 28.9922 28.3047 29.1016 28.168 29.2109C28.0586 29.293 27.9355 29.4023 27.7988 29.5391C27.6621 29.6758 27.5391 29.7852 27.4297 29.8672C27.3203 29.9492 27.1973 30.0449 27.0605 30.1543C26.8965 30.3457 26.7324 30.5371 26.5684 30.7285C26.4043 30.9199 26.2402 31.125 26.0762 31.3438C25.7754 31.4805 25.502 31.6445 25.2559 31.8359C25.0098 32.0273 24.7227 32.1914 24.3945 32.3281C24.2578 32.4102 24.1211 32.5332 23.9844 32.6973C23.875 32.8887 23.7246 33.0117 23.5332 33.0664C23.3145 33.1484 23.082 33.1621 22.8359 33.1074C22.5898 33.0801 22.3848 33.0254 22.2207 32.9434C22.084 32.834 21.9746 32.7656 21.8926 32.7383C21.8105 32.7109 21.7422 32.6973 21.6875 32.6973C21.4414 32.3418 21.2637 31.959 21.1543 31.5488C21.0449 31.1113 20.9219 30.6602 20.7852 30.1953C20.7305 30.0586 20.6895 29.9219 20.6621 29.7852C20.6348 29.6211 20.6074 29.4434 20.5801 29.252C20.5527 29.1426 20.5254 29.0332 20.498 28.9238C20.498 28.8145 20.4707 28.6914 20.416 28.5547C20.3613 28.418 20.3066 28.2812 20.252 28.1445C20.1973 27.9805 20.1562 27.8164 20.1289 27.6523C20.0742 27.3242 20.0605 27.0098 20.0879 26.709C20.0879 26.3809 20.1152 26.0664 20.1699 25.7656C20.334 24.8633 20.5664 24.002 20.8672 23.1816C21.1953 22.3613 21.5234 21.582 21.8516 20.8438C21.9062 20.543 21.9746 20.2832 22.0566 20.0645C22.166 19.8457 22.2617 19.5996 22.3438 19.3262C22.4805 19.1348 22.5762 18.916 22.6309 18.6699C22.6855 18.4238 22.7539 18.1777 22.8359 17.9316C22.918 17.7129 23.0137 17.4805 23.123 17.2344C23.2598 16.9609 23.3555 16.7012 23.4102 16.4551C23.4922 16.1816 23.5605 15.9082 23.6152 15.6348C23.6973 15.3613 23.793 15.1152 23.9023 14.8965C24.1211 14.3223 24.3262 13.7754 24.5176 13.2559C24.709 12.7363 24.9141 12.2168 25.1328 11.6973C25.1875 11.5332 25.2422 11.3691 25.2969 11.2051C25.3516 11.041 25.4336 10.8906 25.543 10.7539C25.5977 10.5898 25.666 10.4531 25.748 10.3438C25.8301 10.207 25.9121 10.0703 25.9941 9.93359C25.9941 9.79688 26.0352 9.70117 26.1172 9.64648C26.2266 9.56445 26.3086 9.46875 26.3633 9.35938C26.5 9.14062 26.5957 8.92188 26.6504 8.70312C26.7324 8.48438 26.8418 8.26562 26.9785 8.04688L27.4707 7.43164C27.5254 7.32227 27.5801 7.21289 27.6348 7.10352C27.6895 6.99414 27.7715 6.89844 27.8809 6.81641C28.1816 6.32422 28.5098 5.83203 28.8652 5.33984C29.2207 4.84766 29.5898 4.32813 29.9727 3.78125C30.2188 3.39844 30.4922 3.04297 30.793 2.71484C31.0938 2.35938 31.4082 2.01758 31.7363 1.68945C31.8457 1.55273 31.9688 1.40234 32.1055 1.23828C32.2695 1.07422 32.4336 0.978516 32.5977 0.951172C32.8438 0.923828 33.1172 0.951172 33.418 1.0332C33.5 1.16992 33.5684 1.32031 33.623 1.48438C33.7051 1.62109 33.7734 1.78516 33.8281 1.97656C33.8828 2.82422 33.8555 3.64453 33.7461 4.4375C33.6367 5.23047 33.5137 6.00977 33.377 6.77539C33.3496 6.91211 33.3359 7.04883 33.3359 7.18555C33.3633 7.29492 33.3633 7.41797 33.3359 7.55469C33.2812 7.71875 33.2129 7.9375 33.1309 8.21094C33.0488 8.45703 32.9805 8.68945 32.9258 8.9082C32.9258 9.29102 32.8438 9.63281 32.6797 9.93359C32.5156 10.2344 32.4062 10.5352 32.3516 10.8359C32.2695 10.8906 32.2148 10.9863 32.1875 11.123C32.1875 11.2324 32.1465 11.3145 32.0645 11.3691C32.0098 11.6699 31.9141 11.9434 31.7773 12.1895C31.668 12.4355 31.5723 12.6816 31.4902 12.9277C31.0801 13.502 30.6562 14.0625 30.2188 14.6094C29.8086 15.1289 29.4121 15.6758 29.0293 16.25C28.5645 16.9609 28.0586 17.6445 27.5117 18.3008C26.9922 18.957 26.5 19.6406 26.0352 20.3516C25.6797 20.6523 25.3789 20.9941 25.1328 21.377C24.8867 21.7598 24.5723 22.1016 24.1895 22.4023C24.0527 22.9492 23.916 23.5508 23.7793 24.207C23.6699 24.8359 23.5469 25.4785 23.4102 26.1348C23.3828 26.3262 23.3418 26.5176 23.2871 26.709C23.2324 26.873 23.1777 27.0508 23.123 27.2422C23.0684 27.4609 23.0547 27.6934 23.082 27.9395C23.1094 28.1855 23.0684 28.418 22.959 28.6367C23.0137 28.7734 23.041 28.9375 23.041 29.1289C23.0684 29.293 23.123 29.4434 23.2051 29.5801C23.2598 29.6621 23.3281 29.7441 23.4102 29.8262C23.5195 29.9082 23.6152 29.9492 23.6973 29.9492C23.8887 29.8398 23.998 29.7988 24.0254 29.8262C24.0527 29.8262 24.0938 29.8125 24.1484 29.7852C24.2852 29.7031 24.4219 29.5938 24.5586 29.457C24.6953 29.3203 24.8184 29.1973 24.9277 29.0879C25.0645 29.0332 25.1602 28.9785 25.2148 28.9238C25.2969 28.8418 25.3789 28.7734 25.4609 28.7188C25.543 28.6641 25.6113 28.623 25.666 28.5957C25.748 28.5684 25.8164 28.5273 25.8711 28.4727C26.2539 28.0625 26.623 27.7617 26.9785 27.5703C27.334 27.3516 27.6211 27.0918 27.8398 26.791C28.1133 26.627 28.3594 26.4766 28.5781 26.3398C28.7422 26.2578 28.8789 26.1484 28.9883 26.0117C29.125 25.8477 29.2891 25.7246 29.4805 25.6426C29.5352 25.5605 29.5898 25.4922 29.6445 25.4375C29.6992 25.3828 29.7539 25.3145 29.8086 25.2324C30.1367 25.0137 30.4512 24.7949 30.752 24.5762C31.0801 24.3574 31.4219 24.1387 31.7773 23.9199C31.832 23.7832 31.9141 23.6738 32.0234 23.5918C32.1602 23.5098 32.2695 23.4277 32.3516 23.3457C32.4336 23.2637 32.502 23.1816 32.5566 23.0996C32.6113 22.9902 32.707 22.9219 32.8438 22.8945C32.8711 22.7578 32.9258 22.6621 33.0078 22.6074C33.1172 22.5527 33.2129 22.457 33.2949 22.3203ZM31.0391 7.02148C30.793 7.07617 30.6152 7.19922 30.5059 7.39062C30.4238 7.58203 30.3418 7.80078 30.2598 8.04688C30.1504 8.26562 30.0547 8.42969 29.9727 8.53906C29.918 8.64844 29.9043 8.8125 29.9316 9.03125C29.084 10.4258 28.3047 11.8887 27.5938 13.4199C26.9102 14.9512 26.2129 16.4961 25.502 18.0547C26.0488 17.5078 26.5547 16.8516 27.0195 16.0859C27.5117 15.3203 28.0176 14.6641 28.5371 14.1172C28.9199 13.1875 29.3438 12.3262 29.8086 11.5332C30.2734 10.7129 30.6289 9.79688 30.875 8.78516C30.7656 8.45703 30.7793 8.16992 30.916 7.92383C31.0527 7.65039 31.1074 7.34961 31.0801 7.02148H31.0391ZM33.8691 29.0879C34.1973 28.9512 34.5254 28.7598 34.8535 28.5137C35.0723 28.2129 35.3047 27.9258 35.5508 27.6523C35.7969 27.3789 36.0566 27.1055 36.3301 26.832C36.4941 26.668 36.6445 26.5039 36.7812 26.3398C36.9453 26.1758 37.123 25.998 37.3145 25.8066C37.3691 25.752 37.4238 25.7109 37.4785 25.6836C37.5332 25.6289 37.5879 25.5605 37.6426 25.4785C37.7793 25.2871 37.9023 25.1094 38.0117 24.9453C38.1211 24.7539 38.2578 24.5625 38.4219 24.3711C38.6133 24.2617 38.791 24.1113 38.9551 23.9199C39.1191 23.7285 39.2832 23.5508 39.4473 23.3867C39.502 23.332 39.5566 23.2773 39.6113 23.2227C39.6934 23.168 39.7617 23.1133 39.8164 23.0586C39.8984 22.9766 39.9531 22.8809 39.9805 22.7715C40.0352 22.6621 40.0898 22.5527 40.1445 22.4434C40.3633 22.0605 40.582 21.7188 40.8008 21.418C41.4023 21.0898 42.0176 20.8027 42.6465 20.5566C43.2754 20.3105 43.877 20.2012 44.4512 20.2285C44.5059 20.2832 44.5879 20.3379 44.6973 20.3926C44.8066 20.4473 44.8887 20.543 44.9434 20.6797C45.0801 20.8984 45.1074 21.1582 45.0254 21.459C44.9434 21.7598 44.8066 21.9785 44.6152 22.1152C44.3965 22.7441 44.2461 23.4551 44.1641 24.248C44.082 25.041 44.0547 25.793 44.082 26.5039C44.0273 26.5859 44 26.709 44 26.873C44.0273 27.0098 44 27.1055 43.918 27.1602C44.0273 27.3789 44.1641 27.5977 44.3281 27.8164C44.4922 28.0352 44.7246 28.1445 45.0254 28.1445C45.3535 28.0625 45.5586 28.0215 45.6406 28.0215C45.7227 28.0215 45.791 28.0078 45.8457 27.9805C45.9551 27.9258 46.0371 27.8711 46.0918 27.8164C46.1738 27.7344 46.2559 27.6797 46.3379 27.6523C46.3926 27.543 46.4473 27.4609 46.502 27.4062C46.5566 27.3516 46.6113 27.2832 46.666 27.2012C46.9395 26.873 47.1992 26.5176 47.4453 26.1348C47.7188 25.752 47.9785 25.3828 48.2246 25.0273C48.3887 24.7539 48.5254 24.5215 48.6348 24.3301C48.7715 24.1387 48.9082 23.8652 49.0449 23.5098C49.0996 23.373 49.1543 23.2363 49.209 23.0996C49.291 22.9355 49.3594 22.7715 49.4141 22.6074C49.4688 22.4434 49.4688 22.2246 49.4141 21.9512C49.3594 21.6504 49.3594 21.4316 49.4141 21.2949C49.5508 21.1035 49.6191 20.9395 49.6191 20.8027C49.8105 20.502 49.9062 20.3242 49.9062 20.2695C49.9062 20.2148 49.9199 20.1602 49.9473 20.1055C50.002 20.0508 50.0566 19.9961 50.1113 19.9414C50.166 19.8594 50.1934 19.7637 50.1934 19.6543C50.6309 19.2168 51.1914 18.8613 51.875 18.5879C52.3672 18.5059 52.791 18.3965 53.1465 18.2598C53.5293 18.0957 53.8301 18.1367 54.0488 18.3828C53.9941 18.4648 54.0078 18.5469 54.0898 18.6289C54.1719 18.6836 54.2129 18.752 54.2129 18.834C54.2402 18.9707 54.2266 19.0801 54.1719 19.1621C54.1445 19.2441 54.1309 19.3262 54.1309 19.4082C53.9668 19.709 53.8711 19.8594 53.8438 19.8594C53.8164 19.8594 53.7891 19.873 53.7617 19.9004C53.707 20.0098 53.6523 20.1465 53.5977 20.3105C53.5703 20.4473 53.5293 20.5977 53.4746 20.7617C53.3926 20.9805 53.2969 21.2266 53.1875 21.5C53.0781 21.7461 52.9414 21.9922 52.7773 22.2383C52.6406 22.5664 52.6133 22.7852 52.6953 22.8945C52.8047 22.9766 52.8594 23.0859 52.8594 23.2227C52.9414 23.2773 53.0234 23.3184 53.1055 23.3457C53.2148 23.373 53.3105 23.4141 53.3926 23.4688C53.4746 23.5234 53.543 23.5918 53.5977 23.6738C53.6797 23.7559 53.7891 23.8242 53.9258 23.8789C54.0078 23.9062 54.1172 23.9199 54.2539 23.9199C54.418 23.8926 54.582 23.8926 54.7461 23.9199C54.9648 23.9473 55.1016 23.9473 55.1562 23.9199C55.2383 23.8926 55.3477 23.8242 55.4844 23.7148C55.7852 23.5508 55.9629 23.4277 56.0176 23.3457C56.0996 23.2637 56.168 23.1953 56.2227 23.1406C56.3594 23.0859 56.4824 23.0586 56.5918 23.0586C56.7285 23.0586 56.8516 23.0312 56.9609 22.9766C57.2617 22.8672 57.5898 22.7305 57.9453 22.5664C58.3281 22.4023 58.6699 22.2383 58.9707 22.0742C59.1074 22.0195 59.2305 21.9648 59.3398 21.9102C59.4766 21.8555 59.5723 21.7598 59.627 21.623C59.7363 21.5957 59.8047 21.582 59.832 21.582C59.8867 21.5547 59.9824 21.541 60.1191 21.541C60.1738 21.6777 60.2422 21.8008 60.3242 21.9102C60.4062 22.0195 60.3652 22.1562 60.2012 22.3203C59.9004 22.6211 59.5312 22.8945 59.0938 23.1406C58.6836 23.3867 58.3281 23.6738 58.0273 24.002C57.6992 24.1387 57.3984 24.3027 57.125 24.4941C56.8516 24.6582 56.5234 24.7949 56.1406 24.9043C55.7305 25.1504 55.4297 25.3418 55.2383 25.4785C55.0469 25.5879 54.8828 25.6562 54.7461 25.6836C54.2539 25.6836 53.8027 25.6973 53.3926 25.7246C53.2559 25.752 53.1328 25.7383 53.0234 25.6836C52.9414 25.6289 52.8184 25.5742 52.6543 25.5195C52.2715 25.4102 51.998 25.2734 51.834 25.1094C51.6699 24.9453 51.5059 24.7949 51.3418 24.6582C51.1504 24.959 50.9727 25.2871 50.8086 25.6426C50.6719 25.998 50.4941 26.2988 50.2754 26.5449C50.1934 26.8184 50.084 27.0508 49.9473 27.2422C49.8105 27.4336 49.6875 27.6797 49.5781 27.9805C49.3047 28.2812 49.0723 28.623 48.8809 29.0059C48.6895 29.3613 48.4434 29.6758 48.1426 29.9492C47.5137 30.7422 46.707 31.4121 45.7227 31.959C45.5312 31.9043 45.3398 31.9316 45.1484 32.041C44.957 32.1504 44.793 32.1641 44.6562 32.082C44.082 32.2188 43.6992 32.1777 43.5078 31.959C43.3438 31.7402 43.166 31.5898 42.9746 31.5078C42.7285 31.125 42.5781 30.7832 42.5234 30.4824C42.4961 30.1816 42.4414 29.8809 42.3594 29.5801C42.3047 29.416 42.2363 29.2793 42.1543 29.1699C42.0996 29.0332 42.0859 28.8965 42.1133 28.7598C42.0312 28.4043 41.9355 28.1172 41.8262 27.8984C41.7441 27.6523 41.6758 27.3789 41.6211 27.0781C41.5938 26.832 41.5801 26.5859 41.5801 26.3398C41.6074 26.0938 41.5801 25.834 41.498 25.5605C41.0059 25.6426 40.6914 25.8203 40.5547 26.0938C40.4453 26.3398 40.2812 26.5312 40.0625 26.668C39.9531 26.9688 39.8027 27.2012 39.6113 27.3652C39.4199 27.502 39.2559 27.7207 39.1191 28.0215C38.8184 28.1855 38.5449 28.4043 38.2988 28.6777C38.0801 28.9512 37.8203 29.2109 37.5195 29.457C37.2461 29.6211 37.0547 29.7578 36.9453 29.8672C36.8633 29.9766 36.7539 30.0586 36.6172 30.1133C36.5352 30.25 36.4258 30.3867 36.2891 30.5234C36.1523 30.6328 36.0156 30.7559 35.8789 30.8926C35.7422 31.0293 35.6191 31.166 35.5098 31.3027C35.4004 31.4121 35.2773 31.5215 35.1406 31.6309C35.0312 31.7676 34.9219 31.877 34.8125 31.959C34.7305 32.0137 34.6484 32.0684 34.5664 32.123C34.4844 32.1777 34.4023 32.2461 34.3203 32.3281C34.2383 32.4375 34.1699 32.5059 34.1152 32.5332C33.7324 32.7793 33.4316 32.957 33.2129 33.0664C32.9941 33.2031 32.8027 33.2305 32.6387 33.1484C32.4199 33.2031 32.2148 33.1621 32.0234 33.0254C31.832 32.916 31.6543 32.8066 31.4902 32.6973C31.3535 32.5059 31.2168 32.3281 31.0801 32.1641C30.9434 32 30.8477 31.8086 30.793 31.5898C30.6289 31.3711 30.4785 31.125 30.3418 30.8516C30.2051 30.5508 30.082 30.25 29.9727 29.9492C29.9453 29.4023 29.9043 28.9922 29.8496 28.7188C29.7949 28.4453 29.7812 28.1719 29.8086 27.8984C29.8359 27.5703 29.9453 27.2832 30.1367 27.0371C30.3008 26.7637 30.4375 26.4902 30.5469 26.2168C30.5195 25.998 30.5605 25.834 30.6699 25.7246C30.7793 25.6152 30.8203 25.4785 30.793 25.3145C31.0391 24.6582 31.2988 24.166 31.5723 23.8379C31.8457 23.4824 32.0508 23.0723 32.1875 22.6074C32.3242 22.1426 32.4883 21.7461 32.6797 21.418C32.8984 21.0625 33.0762 20.666 33.2129 20.2285C33.3223 20.0371 33.4043 19.832 33.459 19.6133C33.541 19.3945 33.6504 19.1758 33.7871 18.957C33.8691 18.875 33.9375 18.793 33.9922 18.7109C34.0742 18.6289 34.1562 18.5605 34.2383 18.5059C34.457 18.4512 34.6484 18.3555 34.8125 18.2188C34.9766 18.082 35.168 17.9863 35.3867 17.9316C35.5781 17.877 35.7285 17.8496 35.8379 17.8496C35.9746 17.8496 36.1113 17.8086 36.248 17.7266C36.6035 17.5078 36.8359 17.3848 36.9453 17.3574C37.082 17.3301 37.2188 17.2891 37.3555 17.2344C37.5469 17.3984 37.6973 17.5762 37.8066 17.7676C37.916 17.9316 37.9434 18.1504 37.8887 18.4238C37.7246 18.5879 37.6289 18.7246 37.6016 18.834C37.5742 18.916 37.5332 18.998 37.4785 19.0801C37.4238 19.1895 37.3418 19.2852 37.2324 19.3672C37.123 19.4492 37.041 19.5449 36.9863 19.6543C36.9316 19.7637 36.877 19.8594 36.8223 19.9414C36.7949 20.0234 36.7539 20.1055 36.6992 20.1875C36.6445 20.2422 36.5762 20.2969 36.4941 20.3516C36.4395 20.4062 36.3848 20.4746 36.3301 20.5566C36.2754 20.6113 36.2344 20.6797 36.207 20.7617C36.1797 20.8438 36.1387 20.9258 36.084 21.0078C35.9746 21.1445 35.8379 21.2676 35.6738 21.377C35.5371 21.4863 35.4414 21.5957 35.3867 21.7051C35.332 21.8691 35.2773 22.0742 35.2227 22.3203C35.1953 22.5391 35.1543 22.7578 35.0996 22.9766C35.0176 23.25 34.8672 23.6055 34.6484 24.043C34.4297 24.4531 34.2656 24.8086 34.1562 25.1094C34.1016 25.3555 34.0469 25.6016 33.9922 25.8477C33.9648 26.0664 33.9238 26.2852 33.8691 26.5039C33.8418 26.6133 33.8008 26.709 33.7461 26.791C33.6914 26.873 33.6504 26.9551 33.623 27.0371C33.4863 27.4199 33.4043 27.8301 33.377 28.2676C33.377 28.7051 33.541 28.9785 33.8691 29.0879ZM59.627 28.7598C59.9004 28.8145 60.1465 28.7461 60.3652 28.5547C60.584 28.3633 60.8164 28.1992 61.0625 28.0625C61.1719 27.9258 61.2949 27.7891 61.4316 27.6523C61.5957 27.4883 61.7598 27.3516 61.9238 27.2422C62.3066 26.75 62.7305 26.2852 63.1953 25.8477C63.4141 25.5742 63.6328 25.3145 63.8516 25.0684C64.0703 24.8223 64.2891 24.5625 64.5078 24.2891C64.6445 24.0977 64.7539 23.9199 64.8359 23.7559C64.918 23.5918 65.0137 23.4277 65.123 23.2637C65.2598 23.0449 65.4102 22.8262 65.5742 22.6074C65.7656 22.3887 65.9023 22.1289 65.9844 21.8281C66.0938 21.6641 66.2305 21.5273 66.3945 21.418C66.5859 21.3086 66.7363 21.1719 66.8457 21.0078C66.9277 20.8984 66.9961 20.7754 67.0508 20.6387C67.1055 20.502 67.1875 20.3926 67.2969 20.3105C67.4062 20.2285 67.4609 20.1602 67.4609 20.1055C67.4883 20.0508 67.5293 19.9961 67.584 19.9414C67.666 19.8047 67.7617 19.6816 67.8711 19.5723C68.0078 19.4629 68.1309 19.3398 68.2402 19.2031C68.541 18.957 68.7871 18.752 68.9785 18.5879C69.1699 18.3965 69.375 18.2324 69.5938 18.0957C70.0859 17.9316 70.5781 17.877 71.0703 17.9316C71.5898 17.9863 71.959 18.1641 72.1777 18.4648C72.2051 18.8203 72.2461 19.1621 72.3008 19.4902C72.3828 19.791 72.3418 20.1875 72.1777 20.6797C72.0684 20.9531 71.9316 21.2266 71.7676 21.5C71.6035 21.7734 71.4805 22.0469 71.3984 22.3203C71.3438 22.4023 71.2891 22.4844 71.2344 22.5664C71.1797 22.6484 71.125 22.7168 71.0703 22.7715C70.7969 23.5098 70.5098 24.2344 70.209 24.9453C69.9082 25.6289 69.6074 26.3262 69.3066 27.0371C69.9902 26.709 70.5098 26.4219 70.8652 26.1758C71.2207 25.9297 71.6035 25.6973 72.0137 25.4785C72.2598 25.3145 72.5059 25.1504 72.752 24.9863C72.998 24.8223 73.2578 24.6582 73.5312 24.4941C73.75 24.2207 73.9961 24.002 74.2695 23.8379C74.543 23.6465 74.8301 23.4551 75.1309 23.2637C75.3223 23.0723 75.5137 22.9219 75.7051 22.8125C75.8965 22.6758 76.1016 22.5391 76.3203 22.4023C76.457 22.293 76.5801 22.1836 76.6895 22.0742C76.8262 21.9648 76.9629 21.8691 77.0996 21.7871C77.209 21.6777 77.3047 21.5684 77.3867 21.459C77.4961 21.3496 77.6191 21.2539 77.7559 21.1719C77.8926 21.1172 78.0156 21.0625 78.125 21.0078C78.2344 20.9531 78.3574 20.8848 78.4941 20.8027C78.6035 20.748 78.6992 20.6797 78.7812 20.5977C78.8906 20.5156 79.0137 20.4473 79.1504 20.3926C79.2324 20.2832 79.3281 20.1602 79.4375 20.0234C79.5469 19.8594 79.6973 19.8047 79.8887 19.8594C79.9434 19.7773 80.0391 19.7363 80.1758 19.7363C80.3398 19.7363 80.4629 19.7637 80.5449 19.8184C80.5449 19.9277 80.5586 20.0098 80.5859 20.0645C80.6406 20.1191 80.6406 20.2148 80.5859 20.3516C80.4492 20.4609 80.3262 20.5703 80.2168 20.6797C80.1074 20.7617 79.9707 20.8301 79.8066 20.8848C79.4512 21.2676 79.1367 21.541 78.8633 21.7051C78.6172 21.8691 78.4121 22.1016 78.248 22.4023C77.7832 22.8672 77.3047 23.332 76.8125 23.7969C76.3203 24.2617 75.8281 24.7129 75.3359 25.1504C75.1719 25.1504 75.0215 25.2051 74.8848 25.3145C74.748 25.4238 74.6113 25.4512 74.4746 25.3965C74.3105 25.3418 74.1738 25.4512 74.0645 25.7246C73.709 26.1074 73.3262 26.4629 72.916 26.791C72.5332 27.1191 72.123 27.4336 71.6855 27.7344C71.1387 28.3086 70.5234 28.8145 69.8398 29.252C69.1562 29.6621 68.541 30.1406 67.9941 30.6875C67.9395 31.2344 67.7891 31.7539 67.543 32.2461C67.3242 32.7656 67.1465 33.2715 67.0098 33.7637C66.791 34.2285 66.627 34.6387 66.5176 34.9941C66.4355 35.3496 66.2988 35.6914 66.1074 36.0195C66.0254 36.4844 65.8887 36.9082 65.6973 37.291C65.5059 37.7012 65.3008 38.0977 65.082 38.4805C65.0273 38.7812 64.8906 39.0684 64.6719 39.3418C64.4531 39.6152 64.2754 39.916 64.1387 40.2441C64.084 40.3809 64.0156 40.5039 63.9336 40.6133C63.8516 40.75 63.7832 40.8867 63.7285 41.0234C63.6465 41.1602 63.5781 41.2969 63.5234 41.4336C63.4688 41.5703 63.4004 41.707 63.3184 41.8438C63.2637 41.8984 63.209 41.9531 63.1543 42.0078C63.0996 42.0898 63.0449 42.1582 62.9902 42.2129L62.498 43.0742C62.2793 43.5391 61.9922 43.9219 61.6367 44.2227C61.3086 44.5508 60.9531 44.9062 60.5703 45.2891C60.4336 45.4258 60.3105 45.5625 60.2012 45.6992C60.1191 45.8359 60.0098 45.9727 59.873 46.1094C59.7363 46.2461 59.5996 46.3691 59.4629 46.4785C59.3262 46.6152 59.1895 46.7656 59.0527 46.9297C58.834 47.0117 58.6562 47.1348 58.5195 47.2988C58.3828 47.4902 58.2461 47.6816 58.1094 47.873C58 47.9277 57.9043 47.9824 57.8223 48.0371C57.7676 48.1191 57.6855 48.1875 57.5762 48.2422C57.3574 48.3242 57.2207 48.3789 57.166 48.4062C57.1113 48.4609 57.0566 48.502 57.002 48.5293C56.8105 48.6387 56.6055 48.6934 56.3867 48.6934C56.168 48.7207 55.9766 48.8027 55.8125 48.9395C55.5391 48.9395 55.3477 48.8848 55.2383 48.7754C55.1016 48.666 54.9785 48.543 54.8691 48.4062C54.7324 48.1602 54.6777 47.8867 54.7051 47.5859C54.7051 47.2852 54.7461 46.9707 54.8281 46.6426C54.8828 46.3145 54.9512 45.9863 55.0332 45.6582C55.0879 45.3574 55.1016 45.0566 55.0742 44.7559C55.2109 44.3184 55.293 43.9492 55.3203 43.6484C55.3477 43.3477 55.4023 43.0742 55.4844 42.8281C55.6758 42.5273 55.7852 42.3086 55.8125 42.1719C55.8398 42.0352 55.9219 41.9395 56.0586 41.8848C56.0859 41.7207 56.127 41.584 56.1816 41.4746C56.2363 41.3652 56.2773 41.2422 56.3047 41.1055C56.3867 41.0508 56.4551 40.9824 56.5098 40.9004C56.5645 40.8184 56.6465 40.75 56.7559 40.6953C57.0293 40.1484 57.2344 39.6836 57.3711 39.3008C57.5352 38.918 57.7129 38.5352 57.9043 38.1523C57.9863 37.9336 58.0547 37.7285 58.1094 37.5371C58.1641 37.3457 58.2324 37.168 58.3145 37.0039C58.4512 36.7031 58.6289 36.4023 58.8477 36.1016C59.0938 35.8008 59.3262 35.5 59.5449 35.1992C59.7363 34.9531 59.8594 34.7754 59.9141 34.666C59.9961 34.5566 60.0645 34.4609 60.1191 34.3789C60.3379 34.2148 60.4336 34.1055 60.4062 34.0508C60.4062 34.0234 60.4199 34.0098 60.4473 34.0098C60.6113 33.8457 60.7754 33.6816 60.9395 33.5176C61.1309 33.3535 61.3223 33.1895 61.5137 33.0254C61.6777 32.834 61.8418 32.6562 62.0059 32.4922C62.1699 32.3281 62.3613 32.1777 62.5801 32.041C62.7441 31.8496 62.9082 31.6719 63.0723 31.5078C63.2363 31.3438 63.4277 31.1934 63.6465 31.0566C64.084 30.7559 64.4805 30.4277 64.8359 30.0723C65.1914 29.6895 65.5742 29.3477 65.9844 29.0469C66.0391 28.6641 66.1348 28.3223 66.2715 28.0215C66.4082 27.7207 66.5039 27.3926 66.5586 27.0371C66.668 26.8457 66.7637 26.627 66.8457 26.3809C66.9277 26.1348 66.9961 25.9023 67.0508 25.6836C67.1328 25.6016 67.1875 25.4922 67.2148 25.3555C67.2695 25.2188 67.3242 25.0684 67.3789 24.9043C67.5156 24.6309 67.584 24.3984 67.584 24.207C67.6113 24.043 67.625 23.9062 67.625 23.7969C67.625 23.6602 67.6523 23.5098 67.707 23.3457C67.7344 23.209 67.748 23.0176 67.748 22.7715C67.5566 22.9355 67.3789 23.127 67.2148 23.3457C67.0781 23.5645 66.9414 23.7695 66.8047 23.9609C66.75 24.0156 66.6816 24.084 66.5996 24.166C66.5449 24.2207 66.5039 24.3164 66.4766 24.4531C66.3398 24.6172 66.2441 24.7129 66.1895 24.7402C66.1348 24.7676 66.1074 24.8086 66.1074 24.8633C65.4785 25.5742 64.8496 26.3125 64.2207 27.0781C63.6191 27.8164 63.0039 28.541 62.375 29.252C62.1289 29.4707 61.8691 29.6895 61.5957 29.9082C61.3223 30.0996 61.0352 30.3047 60.7344 30.5234C60.5156 30.6875 60.2559 30.8926 59.9551 31.1387C59.6543 31.3574 59.2852 31.3984 58.8477 31.2617C58.2188 31.5078 57.6992 31.4668 57.2891 31.1387C56.9062 30.7832 56.6055 30.4004 56.3867 29.9902C56.2773 29.8262 56.1953 29.6895 56.1406 29.5801C56.0586 29.4434 56.0312 29.2246 56.0586 28.9238C56.1133 28.623 56.1816 28.3223 56.2637 28.0215C56.3457 27.6934 56.4141 27.3379 56.4688 26.9551C56.5234 26.6543 56.5645 26.3535 56.5918 26.0527C56.6465 25.752 56.7148 25.4375 56.7969 25.1094C56.8789 24.7266 56.9883 24.3574 57.125 24.002C57.2617 23.6465 57.4258 23.3457 57.6172 23.0996C57.7539 22.6895 57.877 22.3066 57.9863 21.9512C58.123 21.5684 58.2598 21.1855 58.3965 20.8027C58.5332 20.3652 58.6973 19.9414 58.8887 19.5312C59.0801 19.1211 59.2852 18.7246 59.5039 18.3418C59.6406 18.1504 59.7637 17.9863 59.873 17.8496C60.0098 17.6855 60.1465 17.5215 60.2832 17.3574C60.5566 17.3301 60.7754 17.2891 60.9395 17.2344C61.1035 17.1523 61.2676 17.0703 61.4316 16.9883C61.623 16.9336 61.8145 16.8926 62.0059 16.8652C62.1973 16.8105 62.375 16.7559 62.5391 16.7012C62.8398 16.5645 63.0312 16.5098 63.1133 16.5371C63.1953 16.5371 63.2637 16.4961 63.3184 16.4141C63.373 16.5508 63.4551 16.6465 63.5645 16.7012C63.6738 16.7285 63.7422 16.8105 63.7695 16.9473C63.7695 17.1387 63.6875 17.3711 63.5234 17.6445C63.3867 17.918 63.291 18.123 63.2363 18.2598C63.127 18.4512 63.0176 18.6699 62.9082 18.916C62.7988 19.1621 62.6758 19.3809 62.5391 19.5723C62.4844 19.8184 62.4023 20.0645 62.293 20.3105C62.2109 20.5293 62.1289 20.7617 62.0469 21.0078C61.7734 21.3086 61.5273 21.6504 61.3086 22.0332C61.1172 22.416 60.9121 22.8262 60.6934 23.2637C60.6387 23.4004 60.5703 23.5234 60.4883 23.6328C60.4336 23.7422 60.3789 23.8652 60.3242 24.002C60.2695 24.248 60.2148 24.4941 60.1602 24.7402C60.1328 24.9863 60.0918 25.2324 60.0371 25.4785C59.9824 25.6152 59.9277 25.7656 59.873 25.9297C59.8457 26.0664 59.8184 26.2305 59.791 26.4219C59.7363 26.8047 59.6953 27.1875 59.668 27.5703C59.6406 27.9531 59.627 28.3496 59.627 28.7598ZM65.4512 32.2871C64.9043 32.6426 64.4258 33.0254 64.0156 33.4355C63.6055 33.873 63.1816 34.3105 62.7441 34.748C62.5527 34.9668 62.3613 35.1719 62.1699 35.3633C61.9785 35.582 61.8008 35.8145 61.6367 36.0605C61.5 36.3066 61.3496 36.5527 61.1855 36.7988C61.0488 37.0723 60.8711 37.3184 60.6523 37.5371C60.3242 37.8379 60.1191 38.0703 60.0371 38.2344C59.9551 38.4258 59.873 38.5898 59.791 38.7266C59.6816 38.9453 59.5723 39.1504 59.4629 39.3418C59.3809 39.5605 59.2715 39.7656 59.1348 39.957C58.998 40.2305 58.875 40.5039 58.7656 40.7773C58.6562 41.0508 58.5332 41.3242 58.3965 41.5977C58.2051 42.0898 58.0547 42.5547 57.9453 42.9922C57.8359 43.457 57.7949 43.9219 57.8223 44.3867C57.8223 44.4961 57.8223 44.5918 57.8223 44.6738C57.8223 44.7832 57.8633 44.8652 57.9453 44.9199C58.082 44.9199 58.2871 44.8652 58.5605 44.7559C58.7793 44.5645 58.9844 44.373 59.1758 44.1816C59.3945 43.9902 59.5996 43.7852 59.791 43.5664C60.0098 43.3203 60.2148 43.0879 60.4062 42.8691C60.5977 42.6777 60.8027 42.4727 61.0215 42.2539C61.4043 41.8164 61.7461 41.3379 62.0469 40.8184C62.3477 40.3262 62.6074 39.7656 62.8262 39.1367C62.9902 38.8359 63.127 38.5078 63.2363 38.1523C63.3457 37.8242 63.4824 37.5234 63.6465 37.25C63.9473 36.375 64.2617 35.5273 64.5898 34.707C64.918 33.9141 65.2188 33.1074 65.4922 32.2871H65.4512ZM78.6582 26.9551C78.877 26.8184 79.0547 26.6406 79.1914 26.4219C79.3281 26.2031 79.4922 25.9844 79.6836 25.7656C80.0391 25.3555 80.4219 25.0137 80.832 24.7402C81.0234 24.4668 81.2559 24.2617 81.5293 24.125C81.8301 23.9609 82.0625 23.7285 82.2266 23.4277C82.2812 23.3457 82.3223 23.2637 82.3496 23.1816C82.4043 23.0996 82.459 23.0176 82.5137 22.9355C83.0059 22.252 83.5664 21.6504 84.1953 21.1309C84.3594 20.9941 84.5098 20.8574 84.6465 20.7207C84.8105 20.584 85.002 20.4473 85.2207 20.3105C85.4668 20.1738 85.6992 19.9961 85.918 19.7773C86.1641 19.5586 86.4238 19.3945 86.6973 19.2852C86.8887 19.2031 87.0664 19.1484 87.2305 19.1211C87.3945 19.0664 87.5723 19.0117 87.7637 18.957C87.9551 18.9023 88.1191 18.8613 88.2559 18.834C88.4199 18.7793 88.5977 18.7793 88.7891 18.834C89.2266 19.0254 89.5547 19.3945 89.7734 19.9414C89.8281 20.0781 89.8008 20.3789 89.6914 20.8438C89.6094 21.2812 89.4863 21.7734 89.3223 22.3203C89.1855 22.8398 89.0352 23.3457 88.8711 23.8379C88.707 24.3301 88.5977 24.6855 88.543 24.9043C88.4883 25.123 88.4746 25.2461 88.502 25.2734C88.5293 25.2734 88.543 25.3008 88.543 25.3555C88.4883 25.4922 88.4473 25.6152 88.4199 25.7246C88.3926 25.834 88.3652 25.957 88.3379 26.0938C88.2832 26.3125 88.2422 26.6133 88.2148 26.9961C88.1875 27.3516 88.2012 27.6387 88.2559 27.8574C88.5566 27.8301 88.707 27.8027 88.707 27.7754C88.7344 27.748 88.7754 27.7344 88.8301 27.7344C88.9121 27.707 88.9941 27.707 89.0762 27.7344C89.1855 27.7344 89.2812 27.7207 89.3633 27.6934C89.6641 27.6113 89.9375 27.502 90.1836 27.3652C90.4297 27.2012 90.6621 27.0098 90.8809 26.791C91.373 26.5723 91.8242 26.3535 92.2344 26.1348C92.6172 25.8613 92.918 25.6699 93.1367 25.5605C93.3828 25.4238 93.7383 25.2461 94.2031 25.0273C94.3672 24.8359 94.5996 24.6719 94.9004 24.5352C95.2285 24.3711 95.502 24.1934 95.7207 24.002C95.7754 23.9473 95.8438 23.8789 95.9258 23.7969C96.0078 23.6875 96.0898 23.6602 96.1719 23.7148C96.3086 23.8516 96.3906 24.002 96.418 24.166C96.4727 24.3027 96.4863 24.3984 96.459 24.4531C96.2402 24.6719 96.1172 24.8359 96.0898 24.9453C96.0898 25.0547 96.0625 25.1367 96.0078 25.1914C95.8711 25.3281 95.666 25.4512 95.3926 25.5605C95.1465 25.6699 94.9961 25.7656 94.9414 25.8477C94.9141 25.9023 94.873 25.957 94.8184 26.0117C94.7637 26.0664 94.6816 26.1348 94.5723 26.2168C94.4902 26.2715 94.4219 26.3262 94.3672 26.3809C94.3125 26.4629 94.2305 26.5176 94.1211 26.5449C94.0391 26.5449 93.957 26.5586 93.875 26.5859C93.7109 26.7227 93.5742 26.8457 93.4648 26.9551C93.3555 27.0645 93.2324 27.1875 93.0957 27.3242C92.877 27.543 92.7402 27.707 92.6855 27.8164C92.6309 27.8984 92.4805 28.0215 92.2344 28.1855C92.0977 28.2676 91.9609 28.3496 91.8242 28.4316C91.6875 28.5137 91.5508 28.5957 91.4141 28.6777C91.0312 28.8691 90.6484 29.1016 90.2656 29.375C89.8828 29.6484 89.5 29.9219 89.1172 30.1953C88.8438 30.3594 88.5566 30.5098 88.2559 30.6465C87.9824 30.7559 87.7227 30.8926 87.4766 31.0566C87.3672 31.0566 87.2852 31.0566 87.2305 31.0566C87.2031 31.0293 87.1348 31.043 87.0254 31.0977C86.8887 31.0156 86.752 31.0156 86.6152 31.0977C86.4785 31.1523 86.3418 31.1523 86.2051 31.0977C85.9316 30.8789 85.7402 30.7422 85.6309 30.6875C85.5488 30.6328 85.4805 30.5645 85.4258 30.4824C85.3711 30.3457 85.3438 30.1953 85.3438 30.0312C85.3711 29.8672 85.3438 29.7305 85.2617 29.6211C85.2617 29.0195 85.2754 28.4453 85.3027 27.8984C85.3574 27.3516 85.4531 26.7773 85.5898 26.1758C85.6172 25.9844 85.6719 25.7246 85.7539 25.3965C85.8359 25.041 85.9043 24.6992 85.959 24.3711C86.0137 24.043 86.0547 23.7559 86.082 23.5098C86.1094 23.2637 86.082 23.1133 86 23.0586C85.6992 23.2227 85.3848 23.4688 85.0566 23.7969C84.7559 24.125 84.4688 24.3984 84.1953 24.6172C83.9766 24.7812 83.7578 24.9316 83.5391 25.0684C83.3477 25.2051 83.1426 25.3555 82.9238 25.5195C82.7324 25.6562 82.5684 25.793 82.4316 25.9297C82.2949 26.0664 82.1445 26.2305 81.9805 26.4219C81.7891 26.6133 81.6113 26.8047 81.4473 26.9961C81.2832 27.1602 81.0918 27.3242 80.873 27.4883C80.7637 27.5977 80.6543 27.6934 80.5449 27.7754C80.4629 27.8301 80.3809 27.8984 80.2988 27.9805C80.1621 28.1172 80.0254 28.2539 79.8887 28.3906C79.7793 28.5 79.6289 28.5957 79.4375 28.6777C79.2734 28.8965 79.0547 29.1426 78.7812 29.416C78.5352 29.6895 78.2754 29.9902 78.002 30.3184C77.7559 30.6191 77.5098 30.9199 77.2637 31.2207C77.0176 31.5215 76.8262 31.7949 76.6895 32.041C76.3613 32.3145 76.0059 32.5469 75.623 32.7383C75.2676 32.957 74.8301 32.9844 74.3105 32.8203C74.0371 32.6562 73.8594 32.5195 73.7773 32.4102C73.6953 32.3008 73.5996 32.2188 73.4902 32.1641C73.5176 31.8633 73.5449 31.5762 73.5723 31.3027C73.5996 31.0293 73.6816 30.7422 73.8184 30.4414C73.8457 30.3867 73.8867 30.332 73.9414 30.2773C73.9688 30.1953 74.0098 30.1133 74.0645 30.0312C74.2012 29.7852 74.2969 29.5117 74.3516 29.2109C74.3789 28.9102 74.4609 28.623 74.5977 28.3496C74.7617 28.0762 74.8711 27.8574 74.9258 27.6934C74.9531 27.502 75.0078 27.3379 75.0898 27.2012C75.1445 27.0645 75.2266 26.9414 75.3359 26.832C75.418 26.6953 75.4863 26.5586 75.541 26.4219C75.5957 26.2852 75.6914 26.1348 75.8281 25.9707C75.9648 25.7793 76.0605 25.6152 76.1152 25.4785C76.1973 25.1777 76.293 24.877 76.4023 24.5762C76.5117 24.2754 76.6348 23.9746 76.7715 23.6738C76.8262 23.4824 76.8809 23.3047 76.9355 23.1406C76.9902 22.9492 77.0586 22.7715 77.1406 22.6074C77.2773 22.3066 77.4141 22.0195 77.5508 21.7461C77.6875 21.4453 77.8242 21.1445 77.9609 20.8438C78.043 20.6797 78.1113 20.543 78.166 20.4336C78.248 20.2969 78.3438 20.1602 78.4531 20.0234C78.5352 19.8867 78.6035 19.75 78.6582 19.6133C78.7402 19.4766 78.8223 19.3398 78.9043 19.2031C78.9863 19.0664 79.0547 18.916 79.1094 18.752C79.1914 18.5605 79.3008 18.3828 79.4375 18.2188C79.6289 18 79.7793 17.7949 79.8887 17.6035C79.998 17.4121 80.1758 17.2891 80.4219 17.2344C80.5312 17.2891 80.6406 17.2891 80.75 17.2344C80.8867 17.1797 81.0098 17.1387 81.1191 17.1113C81.2559 17.0566 81.3789 17.0293 81.4883 17.0293C81.5977 17.002 81.6934 17.043 81.7754 17.1523C82.1309 17.3711 82.3906 17.5625 82.5547 17.7266C82.7188 17.8906 82.8281 18.041 82.8828 18.1777C83.0195 18.4238 83.0332 18.6836 82.9238 18.957C82.8145 19.2031 82.623 19.4219 82.3496 19.6133C82.2402 20.0781 82.0488 20.5156 81.7754 20.9258C81.502 21.3359 81.2559 21.7324 81.0371 22.1152C80.9824 22.252 80.9277 22.3887 80.873 22.5254C80.8184 22.6621 80.7637 22.7988 80.709 22.9355C80.5449 23.3184 80.3672 23.7012 80.1758 24.084C80.0117 24.4668 79.8203 24.8359 79.6016 25.1914C79.4922 25.4102 79.3965 25.5879 79.3145 25.7246C79.2324 25.8613 79.1504 25.9844 79.0684 26.0938C78.9863 26.1758 78.918 26.2852 78.8633 26.4219C78.8086 26.5586 78.7402 26.7363 78.6582 26.9551Z" fill="black"/>
</svg>
